<svg width="33" height="32" viewBox="0 0 33 32" fill="none" xmlns="http://www.w3.org/2000/svg">
<path d="M16.5008 0C7.66036 0 0.500003 7.34128 0.500003 16.4051C0.498076 19.8488 1.55381 23.2057 3.51745 25.9995C5.48109 28.7934 8.25292 30.8824 11.4397 31.9703C12.2398 32.113 12.5406 31.6208 12.5406 31.1894C12.5406 30.8006 12.5198 29.5095 12.5198 28.1347C8.5004 28.8943 7.46035 27.1308 7.14033 26.2072C6.95952 25.7347 6.18029 24.2796 5.50025 23.8891C4.94022 23.5823 4.14018 22.8228 5.47945 22.8031C6.74031 22.7818 7.63956 23.9925 7.94037 24.4846C9.38045 26.9651 11.6798 26.2678 12.5998 25.838C12.7406 24.7717 13.1598 24.0548 13.6207 23.6447C10.0605 23.2345 6.34029 21.8188 6.34029 15.5438C6.34029 13.759 6.95952 12.2841 7.98038 11.1341C7.82037 10.724 7.26034 9.04249 8.14038 6.78679C8.14038 6.78679 9.47965 6.35698 12.5406 8.46995C13.8432 8.0993 15.189 7.91274 16.5408 7.91546C17.9009 7.91546 19.2609 8.0992 20.541 8.46831C23.602 6.33565 24.9412 6.78843 24.9412 6.78843C25.8213 9.04413 25.2612 10.7257 25.1012 11.1358C26.1205 12.2841 26.7413 13.7393 26.7413 15.5438C26.7413 21.8401 23.0019 23.2345 19.4401 23.6447C20.021 24.1565 20.5218 25.1408 20.5218 26.6796C20.5218 28.873 20.501 30.6365 20.501 31.191C20.501 31.6208 20.8018 32.1327 21.6019 31.9686C24.7778 30.8689 27.5374 28.7758 29.4923 25.9839C31.4473 23.192 32.4992 19.842 32.5 16.4051C32.5 7.34128 25.3396 0 16.4992 0H16.5008Z" fill="url(#paint0_linear_144_10)"/>
<defs>
<linearGradient id="paint0_linear_144_10" x1="0.500001" y1="27.6491" x2="91.0263" y2="25.6842" gradientUnits="userSpaceOnUse">
<stop stop-color="#20EAF7"/>
<stop offset="0.380208" stop-color="#2879E0"/>
<stop offset="1" stop-color="#112F36"/>
</linearGradient>
</defs>
</svg>
