<svg width="33" height="32" viewBox="0 0 33 32" fill="none" xmlns="http://www.w3.org/2000/svg">
<path d="M16.5007 0C18.3921 0 30.8466 6.516 31.789 8C32.737 9.484 32.737 22.516 31.789 24C30.8411 25.484 18.391 32 16.5007 32C14.6092 32 2.15475 25.484 1.20681 24C0.264395 22.516 0.264395 9.484 1.20681 8C2.15475 6.516 14.6103 0 16.5007 0ZM19.8808 9.068C19.8305 9.06734 19.7805 9.07575 19.7338 9.09274C19.6872 9.10973 19.6446 9.13496 19.6088 9.16697C19.573 9.19898 19.5445 9.23713 19.5251 9.27919C19.5057 9.32126 19.4957 9.3664 19.4957 9.412V14.579H13.5068V9.209H14.5353C14.5848 9.20887 14.6339 9.19985 14.6796 9.18245C14.7253 9.16506 14.7667 9.13964 14.8015 9.10765C14.8362 9.07567 14.8637 9.03776 14.8822 8.99611C14.9007 8.95446 14.91 8.9099 14.9094 8.865C14.9092 8.80672 14.8929 8.74943 14.8618 8.69839C14.8307 8.64736 14.786 8.60424 14.7317 8.573L12.4154 6.563C12.3756 6.51751 12.3249 6.48076 12.2672 6.45548C12.2095 6.4302 12.1462 6.41705 12.0821 6.417C12.0228 6.41773 11.9645 6.43083 11.9117 6.45528C11.8589 6.47974 11.813 6.51488 11.7776 6.558L9.30565 8.574C9.23472 8.6131 9.17994 8.67226 9.14976 8.74235C9.11958 8.81244 9.11567 8.88957 9.13862 8.96188C9.16158 9.03418 9.21014 9.09764 9.27681 9.14247C9.34348 9.18731 9.42458 9.21104 9.5076 9.21H10.5427L10.5537 22.59C10.5537 22.783 10.7149 22.934 10.9278 22.934H13.1239C13.1738 22.9341 13.2232 22.9253 13.2693 22.9081C13.3154 22.8908 13.3574 22.8655 13.3926 22.8335C13.4279 22.8016 13.4559 22.7636 13.4749 22.7218C13.4939 22.68 13.5036 22.6352 13.5035 22.59V17.251H19.4979V22.787H18.4694C18.3864 22.786 18.3053 22.8097 18.2386 22.8545C18.1719 22.8994 18.1234 22.9628 18.1004 23.0351C18.0775 23.1074 18.0814 23.1846 18.1116 23.2547C18.1417 23.3247 18.1965 23.3839 18.2674 23.423L20.5893 25.439C20.6522 25.522 20.7967 25.585 20.9226 25.585C21.0484 25.585 21.1521 25.522 21.2271 25.439L23.699 23.423C23.7536 23.392 23.7986 23.349 23.8297 23.2979C23.8608 23.2468 23.8769 23.1893 23.8767 23.131C23.8758 23.04 23.8356 22.953 23.7646 22.8886C23.6936 22.8243 23.5975 22.7878 23.4971 22.787H22.462L22.4509 9.412C22.4523 9.36668 22.4436 9.32158 22.4254 9.27935C22.4072 9.23713 22.3799 9.19862 22.345 9.1661C22.3102 9.13358 22.2685 9.10771 22.2224 9.09C22.1764 9.0723 22.1269 9.06312 22.0768 9.063H19.8808V9.068Z" fill="url(#paint0_linear_144_12)"/>
<defs>
<linearGradient id="paint0_linear_144_12" x1="0.500001" y1="27.6491" x2="91.0263" y2="25.6842" gradientUnits="userSpaceOnUse">
<stop stop-color="#20EAF7"/>
<stop offset="0.380208" stop-color="#2879E0"/>
<stop offset="1" stop-color="#112F36"/>
</linearGradient>
</defs>
</svg>
