<svg width="65" height="64" viewBox="0 0 65 64" fill="none" xmlns="http://www.w3.org/2000/svg">
<path d="M50.8333 12.7602C48.3885 10.2906 45.4765 8.33261 42.267 7.00029C39.0576 5.66798 35.615 4.98805 32.14 5.00016C17.58 5.00016 5.71333 16.8668 5.71333 31.4268C5.71333 36.0935 6.94 40.6268 9.23333 44.6268L5.5 58.3335L19.5 54.6535C23.3667 56.7602 27.7133 57.8802 32.14 57.8802C46.7 57.8802 58.5667 46.0135 58.5667 31.4535C58.5667 24.3868 55.82 17.7468 50.8333 12.7602ZM32.14 53.4002C28.1933 53.4002 24.3267 52.3335 20.94 50.3335L20.14 49.8535L11.82 52.0402L14.0333 43.9335L13.5 43.1068C11.3073 39.6054 10.143 35.5581 10.14 31.4268C10.14 19.3202 20.0067 9.45349 32.1133 9.45349C37.98 9.45349 43.5 11.7468 47.6333 15.9068C49.68 17.9441 51.3019 20.3673 52.4051 23.036C53.5082 25.7047 54.0708 28.5658 54.06 31.4535C54.1133 43.5602 44.2467 53.4002 32.14 53.4002ZM44.1933 36.9735C43.5267 36.6535 40.2733 35.0535 39.6867 34.8135C39.0733 34.6002 38.6467 34.4935 38.1933 35.1335C37.74 35.8002 36.4867 37.2935 36.1133 37.7202C35.74 38.1735 35.34 38.2268 34.6733 37.8802C34.0067 37.5602 31.8733 36.8402 29.3667 34.6002C27.3933 32.8402 26.0867 30.6802 25.6867 30.0135C25.3133 29.3468 25.6333 29.0002 25.98 28.6535C26.2733 28.3602 26.6467 27.8802 26.9667 27.5068C27.2867 27.1335 27.42 26.8402 27.6333 26.4135C27.8467 25.9602 27.74 25.5868 27.58 25.2668C27.42 24.9468 26.0867 21.6935 25.5533 20.3602C25.02 19.0802 24.46 19.2402 24.06 19.2135H22.78C22.3267 19.2135 21.6333 19.3735 21.02 20.0402C20.4333 20.7068 18.7267 22.3068 18.7267 25.5602C18.7267 28.8135 21.1 31.9602 21.42 32.3868C21.74 32.8402 26.0867 39.5068 32.7 42.3602C34.2733 43.0535 35.5 43.4535 36.46 43.7468C38.0333 44.2535 39.4733 44.1735 40.62 44.0135C41.9 43.8268 44.54 42.4135 45.0733 40.8668C45.6333 39.3202 45.6333 38.0135 45.4467 37.7202C45.26 37.4268 44.86 37.2935 44.1933 36.9735Z" fill="url(#paint0_linear_325_141)"/>
<defs>
<linearGradient id="paint0_linear_325_141" x1="5.5" y1="51.082" x2="155.624" y2="47.8398" gradientUnits="userSpaceOnUse">
<stop stop-color="#20EAF7"/>
<stop offset="0.380208" stop-color="#2879E0"/>
<stop offset="1" stop-color="#112F36"/>
</linearGradient>
</defs>
</svg>
