<svg width="33" height="32" viewBox="0 0 33 32" fill="none" xmlns="http://www.w3.org/2000/svg">
<path d="M7.21564 3.55714C7.21519 4.50008 6.86099 5.40421 6.23097 6.07063C5.60094 6.73706 4.74669 7.11119 3.85614 7.11072C2.96559 7.11025 2.11169 6.73521 1.4823 6.06812C0.852897 5.40103 0.499555 4.49652 0.5 3.55358C0.500446 2.61064 0.854642 1.70651 1.48467 1.04008C2.1147 0.373658 2.96895 -0.000471025 3.8595 4.45062e-07C4.75005 0.000471915 5.60394 0.375505 6.23334 1.0426C6.86274 1.70969 7.21608 2.6142 7.21564 3.55714ZM7.31637 9.74346H0.600735V32H7.31637V9.74346ZM17.9271 9.74346H11.245V32H17.8599V20.3207C17.8599 13.8143 25.8683 13.2099 25.8683 20.3207V32H32.5V17.903C32.5 6.93473 20.6469 7.34359 17.8599 12.73L17.9271 9.74346Z" fill="url(#paint0_linear_144_9)"/>
<defs>
<linearGradient id="paint0_linear_144_9" x1="0.500001" y1="27.6491" x2="91.0263" y2="25.6842" gradientUnits="userSpaceOnUse">
<stop stop-color="#20EAF7"/>
<stop offset="0.380208" stop-color="#2879E0"/>
<stop offset="1" stop-color="#112F36"/>
</linearGradient>
</defs>
</svg>
