<svg width="65" height="64" viewBox="0 0 65 64" fill="none" xmlns="http://www.w3.org/2000/svg">
<path d="M10.8333 53.6667C9.36667 53.6667 8.11067 53.144 7.06534 52.0987C6.02 51.0533 5.49823 49.7982 5.5 48.3333V16.3333C5.5 14.8667 6.02267 13.6107 7.068 12.5653C8.11334 11.52 9.36845 10.9982 10.8333 11H53.5C54.9667 11 56.2227 11.5227 57.268 12.568C58.3133 13.6133 58.8351 14.8684 58.8333 16.3333V48.3333C58.8333 49.8 58.3107 51.056 57.2653 52.1013C56.22 53.1467 54.9649 53.6684 53.5 53.6667H10.8333ZM32.1667 35L10.8333 21.6667V48.3333H53.5V21.6667L32.1667 35ZM32.1667 29.6667L53.5 16.3333H10.8333L32.1667 29.6667ZM10.8333 21.6667V16.3333V48.3333V21.6667Z" fill="url(#paint0_linear_325_143)"/>
<defs>
<linearGradient id="paint0_linear_325_143" x1="5.5" y1="47.8655" x2="156.337" y2="43.773" gradientUnits="userSpaceOnUse">
<stop stop-color="#20EAF7"/>
<stop offset="0.380208" stop-color="#2879E0"/>
<stop offset="1" stop-color="#112F36"/>
</linearGradient>
</defs>
</svg>
