<svg width="159" height="113" viewBox="0 0 159 113" fill="none" xmlns="http://www.w3.org/2000/svg">
<g clip-path="url(#clip0_38_124)">
<mask id="mask0_38_124" style="mask-type:luminance" maskUnits="userSpaceOnUse" x="0" y="0" width="159" height="113">
<path d="M159 0H0V113H159V0Z" fill="white"/>
</mask>
<g mask="url(#mask0_38_124)">
<path d="M92.6171 19.9206C95.597 19.9206 98.0128 17.56 98.0128 14.6482C98.0128 11.7363 95.597 9.37573 92.6171 9.37573C89.6371 9.37573 87.2217 11.7363 87.2217 14.6482C87.2217 17.56 89.6371 19.9206 92.6171 19.9206Z" fill="#F2F2F2"/>
<path d="M134.473 98.1693C142.493 92.2 146.324 82.1696 143.926 72.6012C143.866 72.3634 143.803 72.1262 143.737 71.8895C142.147 66.21 138.214 60.8119 132.481 58.9971C127.668 57.4732 122.414 58.6448 117.392 58.0389C107.534 56.8493 99.8921 49.0556 94.5147 40.8952C89.1372 32.7351 85.0043 23.6008 77.8589 16.8593C66.0808 5.74695 46.8678 3.35447 32.2644 10.5878C17.6612 17.8211 8.35913 33.8688 8.75586 49.8624C9.15259 65.856 18.8692 81.1469 32.9801 89.2595C38.1638 92.2399 44.1593 94.3513 50.1262 93.6124C55.3036 92.9713 60.0076 90.2532 65.1605 89.4461C73.2622 88.1773 81.3122 91.7567 88.3195 95.9276C95.3265 100.099 102.095 105.043 110.058 106.976C117.79 108.854 127.369 103.457 134.473 98.1693Z" fill="#F2F2F2"/>
<path d="M122.95 10.9237C122.774 10.8092 122.597 10.7005 122.421 10.59C117.339 7.41392 111.892 4.83372 106.192 2.90271L104.87 20.7179H96.492V0.302119C95.9645 0.195489 95.4329 0.0947824 94.9017 0V20.7179H84.9451C79.464 20.7179 74.2075 18.5902 70.3318 14.803C66.4557 11.0158 64.2784 5.87924 64.2784 0.523301C63.745 0.635857 63.2156 0.75629 62.6862 0.884643V20.7179H54.5765L53.3177 3.73009C47.4603 5.92516 41.8997 8.81175 36.7593 12.3257C36.6703 12.3849 36.5815 12.4461 36.4946 12.5054C36.048 12.8114 35.6075 13.1234 35.1689 13.4394V81.4045H59.0688L58.6464 75.6878L56.3225 44.301H103.122L100.798 75.6878L100.376 81.4045H124.011V11.6109C123.659 11.3779 123.306 11.1488 122.95 10.9237ZM62.6862 39.1174H55.9386L54.6919 22.2739H62.6862V39.1174ZM94.9017 39.1174H83.5691V38.7838C83.5691 38.6234 83.5365 38.4645 83.4738 38.3163C83.4108 38.1682 83.3188 38.0337 83.2023 37.9203C83.0862 37.8069 82.9484 37.7169 82.7968 37.6559C82.6447 37.5946 82.4824 37.5634 82.3179 37.5634H77.3915C77.2274 37.5634 77.0651 37.5949 76.9134 37.6563C76.7617 37.7176 76.6243 37.8073 76.5082 37.9207C76.3921 38.034 76.3001 38.1685 76.2375 38.3167C76.1748 38.4649 76.1426 38.6234 76.1426 38.7838V39.1174H64.2784V22.2739H94.9017V39.1174ZM96.492 39.1174V22.2739H104.755L103.508 39.1174H96.492Z" fill="#20B6F7"/>
<path d="M0 85.7566C1.75551 87.7892 3.6543 89.6994 5.68247 91.473L153.317 91.6706C155.346 89.8967 157.244 87.9865 159 85.9539L0 85.7566Z" fill="#3F3D56"/>
<path d="M100.116 67.4517V84.3751C100.116 84.5907 100.204 84.7977 100.36 84.9502C100.516 85.1026 100.728 85.1884 100.949 85.1887H126.614C126.834 85.1884 127.046 85.1026 127.202 84.9502C127.358 84.7977 127.446 84.5907 127.446 84.3751V67.4517C127.446 67.2365 127.358 67.0298 127.202 66.8777C127.045 66.7253 126.834 66.6395 126.614 66.6395H100.949C100.728 66.6395 100.517 66.7253 100.361 66.8777C100.205 67.0298 100.117 67.2365 100.116 67.4517Z" fill="#3F3D56"/>
<path d="M100.718 67.6623V84.1664C100.719 84.2819 100.766 84.392 100.849 84.4738C100.932 84.5553 101.045 84.6012 101.163 84.6012H126.4C126.518 84.6012 126.631 84.5553 126.714 84.4738C126.798 84.392 126.845 84.2819 126.845 84.1664V67.6623C126.845 67.5472 126.798 67.4363 126.715 67.3549C126.631 67.2731 126.518 67.2272 126.4 67.2268H101.163C101.045 67.2272 100.932 67.2731 100.849 67.3549C100.765 67.4363 100.718 67.5472 100.718 67.6623Z" fill="#20B6F7"/>
<path d="M99.5792 87.6758C99.6261 87.7332 99.6858 87.7799 99.754 87.8118C99.8221 87.8434 99.8965 87.8599 99.972 87.8595H127.453C127.528 87.8591 127.602 87.843 127.67 87.8111C127.738 87.7795 127.798 87.7336 127.845 87.6765C127.893 87.6195 127.926 87.5528 127.944 87.4814C127.961 87.41 127.963 87.3357 127.947 87.264L127.521 85.2838C127.503 85.2031 127.465 85.1281 127.41 85.0653C127.355 85.0026 127.285 84.9545 127.206 84.9251C127.149 84.9028 127.088 84.8917 127.026 84.8917H100.397C100.335 84.8917 100.275 84.9028 100.217 84.9251C100.138 84.9545 100.068 85.0026 100.013 85.0653C99.958 85.1281 99.9203 85.2031 99.9023 85.2838L99.4759 87.264C99.4605 87.3357 99.462 87.41 99.4799 87.481C99.4979 87.5524 99.5316 87.6188 99.5792 87.6758Z" fill="#2F2E41"/>
<path d="M126.084 85.7448H126.733C126.787 85.7448 126.832 85.7014 126.832 85.6483V85.3448C126.832 85.2917 126.787 85.2483 126.733 85.2483H126.084C126.029 85.2483 125.985 85.2917 125.985 85.3448V85.6483C125.985 85.7014 126.029 85.7448 126.084 85.7448Z" fill="#3F3D56"/>
<path d="M124.391 85.7448H125.04C125.094 85.7448 125.138 85.7014 125.138 85.6483V85.3448C125.138 85.2917 125.094 85.2483 125.04 85.2483H124.391C124.336 85.2483 124.292 85.2917 124.292 85.3448V85.6483C124.292 85.7014 124.336 85.7448 124.391 85.7448Z" fill="#3F3D56"/>
<path d="M122.698 85.7448H123.347C123.401 85.7448 123.446 85.7014 123.446 85.6483V85.3448C123.446 85.2917 123.401 85.2483 123.347 85.2483H122.698C122.643 85.2483 122.599 85.2917 122.599 85.3448V85.6483C122.599 85.7014 122.643 85.7448 122.698 85.7448Z" fill="#3F3D56"/>
<path d="M121.005 85.7448H121.654C121.709 85.7448 121.753 85.7014 121.753 85.6483V85.3448C121.753 85.2917 121.709 85.2483 121.654 85.2483H121.005C120.951 85.2483 120.907 85.2917 120.907 85.3448V85.6483C120.907 85.7014 120.951 85.7448 121.005 85.7448Z" fill="#3F3D56"/>
<path d="M119.313 85.7448H119.962C120.016 85.7448 120.061 85.7014 120.061 85.6483V85.3448C120.061 85.2917 120.016 85.2483 119.962 85.2483H119.313C119.258 85.2483 119.214 85.2917 119.214 85.3448V85.6483C119.214 85.7014 119.258 85.7448 119.313 85.7448Z" fill="#3F3D56"/>
<path d="M117.62 85.7448H118.269C118.323 85.7448 118.367 85.7014 118.367 85.6483V85.3448C118.367 85.2917 118.323 85.2483 118.269 85.2483H117.62C117.565 85.2483 117.521 85.2917 117.521 85.3448V85.6483C117.521 85.7014 117.565 85.7448 117.62 85.7448Z" fill="#3F3D56"/>
<path d="M115.927 85.7448H116.576C116.63 85.7448 116.674 85.7014 116.674 85.6483V85.3448C116.674 85.2917 116.63 85.2483 116.576 85.2483H115.927C115.872 85.2483 115.828 85.2917 115.828 85.3448V85.6483C115.828 85.7014 115.872 85.7448 115.927 85.7448Z" fill="#3F3D56"/>
<path d="M114.234 85.7448H114.883C114.938 85.7448 114.982 85.7014 114.982 85.6483V85.3448C114.982 85.2917 114.938 85.2483 114.883 85.2483H114.234C114.18 85.2483 114.135 85.2917 114.135 85.3448V85.6483C114.135 85.7014 114.18 85.7448 114.234 85.7448Z" fill="#3F3D56"/>
<path d="M112.541 85.7448H113.191C113.245 85.7448 113.289 85.7014 113.289 85.6483V85.3448C113.289 85.2917 113.245 85.2483 113.191 85.2483H112.541C112.487 85.2483 112.443 85.2917 112.443 85.3448V85.6483C112.443 85.7014 112.487 85.7448 112.541 85.7448Z" fill="#3F3D56"/>
<path d="M110.848 85.7448H111.497C111.552 85.7448 111.596 85.7014 111.596 85.6483V85.3448C111.596 85.2917 111.552 85.2483 111.497 85.2483H110.848C110.794 85.2483 110.75 85.2917 110.75 85.3448V85.6483C110.75 85.7014 110.794 85.7448 110.848 85.7448Z" fill="#3F3D56"/>
<path d="M109.156 85.7448H109.804C109.859 85.7448 109.903 85.7014 109.903 85.6483V85.3448C109.903 85.2917 109.859 85.2483 109.804 85.2483H109.156C109.101 85.2483 109.057 85.2917 109.057 85.3448V85.6483C109.057 85.7014 109.101 85.7448 109.156 85.7448Z" fill="#3F3D56"/>
<path d="M107.463 85.7448H108.112C108.166 85.7448 108.211 85.7014 108.211 85.6483V85.3448C108.211 85.2917 108.166 85.2483 108.112 85.2483H107.463C107.408 85.2483 107.364 85.2917 107.364 85.3448V85.6483C107.364 85.7014 107.408 85.7448 107.463 85.7448Z" fill="#3F3D56"/>
<path d="M105.77 85.7448H106.419C106.474 85.7448 106.518 85.7014 106.518 85.6483V85.3448C106.518 85.2917 106.474 85.2483 106.419 85.2483H105.77C105.716 85.2483 105.671 85.2917 105.671 85.3448V85.6483C105.671 85.7014 105.716 85.7448 105.77 85.7448Z" fill="#3F3D56"/>
<path d="M104.077 85.7448H104.726C104.781 85.7448 104.825 85.7014 104.825 85.6483V85.3448C104.825 85.2917 104.781 85.2483 104.726 85.2483H104.077C104.023 85.2483 103.979 85.2917 103.979 85.3448V85.6483C103.979 85.7014 104.023 85.7448 104.077 85.7448Z" fill="#3F3D56"/>
<path d="M102.384 85.7448H103.033C103.088 85.7448 103.132 85.7014 103.132 85.6483V85.3448C103.132 85.2917 103.088 85.2483 103.033 85.2483H102.384C102.33 85.2483 102.286 85.2917 102.286 85.3448V85.6483C102.286 85.7014 102.33 85.7448 102.384 85.7448Z" fill="#3F3D56"/>
<path d="M100.691 85.7448H101.341C101.395 85.7448 101.439 85.7014 101.439 85.6483V85.3448C101.439 85.2917 101.395 85.2483 101.341 85.2483H100.691C100.637 85.2483 100.593 85.2917 100.593 85.3448V85.6483C100.593 85.7014 100.637 85.7448 100.691 85.7448Z" fill="#3F3D56"/>
<path d="M126.104 86.5717H126.753C126.807 86.5717 126.852 86.5286 126.852 86.4755V86.1721C126.852 86.1186 126.807 86.0756 126.753 86.0756H126.104C126.049 86.0756 126.005 86.1186 126.005 86.1721V86.4755C126.005 86.5286 126.049 86.5717 126.104 86.5717Z" fill="#3F3D56"/>
<path d="M124.411 86.5717H125.06C125.114 86.5717 125.159 86.5286 125.159 86.4755V86.1721C125.159 86.1186 125.114 86.0756 125.06 86.0756H124.411C124.356 86.0756 124.312 86.1186 124.312 86.1721V86.4755C124.312 86.5286 124.356 86.5717 124.411 86.5717Z" fill="#3F3D56"/>
<path d="M122.718 86.5717H123.367C123.422 86.5717 123.466 86.5286 123.466 86.4755V86.1721C123.466 86.1186 123.422 86.0756 123.367 86.0756H122.718C122.664 86.0756 122.62 86.1186 122.62 86.1721V86.4755C122.62 86.5286 122.664 86.5717 122.718 86.5717Z" fill="#3F3D56"/>
<path d="M121.025 86.5717H121.674C121.729 86.5717 121.773 86.5286 121.773 86.4755V86.1721C121.773 86.1186 121.729 86.0756 121.674 86.0756H121.025C120.971 86.0756 120.926 86.1186 120.926 86.1721V86.4755C120.926 86.5286 120.971 86.5717 121.025 86.5717Z" fill="#3F3D56"/>
<path d="M119.332 86.5717H119.982C120.036 86.5717 120.08 86.5286 120.08 86.4755V86.1721C120.08 86.1186 120.036 86.0756 119.982 86.0756H119.332C119.278 86.0756 119.234 86.1186 119.234 86.1721V86.4755C119.234 86.5286 119.278 86.5717 119.332 86.5717Z" fill="#3F3D56"/>
<path d="M117.64 86.5717H118.289C118.343 86.5717 118.387 86.5286 118.387 86.4755V86.1721C118.387 86.1186 118.343 86.0756 118.289 86.0756H117.64C117.585 86.0756 117.541 86.1186 117.541 86.1721V86.4755C117.541 86.5286 117.585 86.5717 117.64 86.5717Z" fill="#3F3D56"/>
<path d="M115.947 86.5717H116.596C116.65 86.5717 116.695 86.5286 116.695 86.4755V86.1721C116.695 86.1186 116.65 86.0756 116.596 86.0756H115.947C115.892 86.0756 115.848 86.1186 115.848 86.1721V86.4755C115.848 86.5286 115.892 86.5717 115.947 86.5717Z" fill="#3F3D56"/>
<path d="M114.254 86.5717H114.903C114.958 86.5717 115.002 86.5286 115.002 86.4755V86.1721C115.002 86.1186 114.958 86.0756 114.903 86.0756H114.254C114.199 86.0756 114.155 86.1186 114.155 86.1721V86.4755C114.155 86.5286 114.199 86.5717 114.254 86.5717Z" fill="#3F3D56"/>
<path d="M112.561 86.5717H113.21C113.265 86.5717 113.309 86.5286 113.309 86.4755V86.1721C113.309 86.1186 113.265 86.0756 113.21 86.0756H112.561C112.507 86.0756 112.462 86.1186 112.462 86.1721V86.4755C112.462 86.5286 112.507 86.5717 112.561 86.5717Z" fill="#3F3D56"/>
<path d="M110.869 86.5717H111.518C111.572 86.5717 111.616 86.5286 111.616 86.4755V86.1721C111.616 86.1186 111.572 86.0756 111.518 86.0756H110.869C110.814 86.0756 110.77 86.1186 110.77 86.1721V86.4755C110.77 86.5286 110.814 86.5717 110.869 86.5717Z" fill="#3F3D56"/>
<path d="M109.176 86.5717H109.825C109.879 86.5717 109.923 86.5286 109.923 86.4755V86.1721C109.923 86.1186 109.879 86.0756 109.825 86.0756H109.176C109.121 86.0756 109.077 86.1186 109.077 86.1721V86.4755C109.077 86.5286 109.121 86.5717 109.176 86.5717Z" fill="#3F3D56"/>
<path d="M107.483 86.5717H108.132C108.186 86.5717 108.23 86.5286 108.23 86.4755V86.1721C108.23 86.1186 108.186 86.0756 108.132 86.0756H107.483C107.428 86.0756 107.384 86.1186 107.384 86.1721V86.4755C107.384 86.5286 107.428 86.5717 107.483 86.5717Z" fill="#3F3D56"/>
<path d="M105.79 86.5717H106.439C106.493 86.5717 106.538 86.5286 106.538 86.4755V86.1721C106.538 86.1186 106.493 86.0756 106.439 86.0756H105.79C105.735 86.0756 105.691 86.1186 105.691 86.1721V86.4755C105.691 86.5286 105.735 86.5717 105.79 86.5717Z" fill="#3F3D56"/>
<path d="M104.097 86.5717H104.746C104.801 86.5717 104.845 86.5286 104.845 86.4755V86.1721C104.845 86.1186 104.801 86.0756 104.746 86.0756H104.097C104.043 86.0756 103.999 86.1186 103.999 86.1721V86.4755C103.999 86.5286 104.043 86.5717 104.097 86.5717Z" fill="#3F3D56"/>
<path d="M102.405 86.5717H103.053C103.108 86.5717 103.152 86.5286 103.152 86.4755V86.1721C103.152 86.1186 103.108 86.0756 103.053 86.0756H102.405C102.35 86.0756 102.306 86.1186 102.306 86.1721V86.4755C102.306 86.5286 102.35 86.5717 102.405 86.5717Z" fill="#3F3D56"/>
<path d="M100.711 86.5717H101.361C101.415 86.5717 101.459 86.5286 101.459 86.4755V86.1721C101.459 86.1186 101.415 86.0756 101.361 86.0756H100.711C100.657 86.0756 100.613 86.1186 100.613 86.1721V86.4755C100.613 86.5286 100.657 86.5717 100.711 86.5717Z" fill="#3F3D56"/>
<path d="M112.053 87.5642H118.627C118.682 87.5642 118.726 87.5212 118.726 87.4677V87.1643C118.726 87.1112 118.682 87.0681 118.627 87.0681H112.053C111.999 87.0681 111.955 87.1112 111.955 87.1643V87.4677C111.955 87.5212 111.999 87.5642 112.053 87.5642Z" fill="#3F3D56"/>
<path d="M105.088 70.8374H104.514C104.339 70.8374 104.198 70.9755 104.198 71.1459C104.198 71.3159 104.339 71.4541 104.514 71.4541H105.088C105.263 71.4541 105.404 71.3159 105.404 71.1459C105.404 70.9755 105.263 70.8374 105.088 70.8374Z" fill="white"/>
<path d="M111.661 70.8374H111.086C110.912 70.8374 110.771 70.9755 110.771 71.1459C110.771 71.3159 110.912 71.4541 111.086 71.4541H111.661C111.835 71.4541 111.976 71.3159 111.976 71.1459C111.976 70.9755 111.835 70.8374 111.661 70.8374Z" fill="white"/>
<path d="M113.523 70.8374H112.948C112.774 70.8374 112.633 70.9755 112.633 71.1459C112.633 71.3159 112.774 71.4541 112.948 71.4541H113.523C113.697 71.4541 113.838 71.3159 113.838 71.1459C113.838 70.9755 113.697 70.8374 113.523 70.8374Z" fill="white"/>
<path d="M109.873 70.7861H106.301C106.127 70.7861 105.986 70.9242 105.986 71.0943C105.986 71.2647 106.127 71.4028 106.301 71.4028H109.873C110.047 71.4028 110.188 71.2647 110.188 71.0943C110.188 70.9242 110.047 70.7861 109.873 70.7861Z" fill="white"/>
<path d="M118.636 70.7861H115.064C114.89 70.7861 114.749 70.9242 114.749 71.0943C114.749 71.2647 114.89 71.4028 115.064 71.4028H118.636C118.81 71.4028 118.952 71.2647 118.952 71.0943C118.952 70.9242 118.81 70.7861 118.636 70.7861Z" fill="white"/>
<path d="M106.841 72.2289H106.266C106.092 72.2289 105.951 72.367 105.951 72.537C105.951 72.7074 106.092 72.8455 106.266 72.8455H106.841C107.015 72.8455 107.156 72.7074 107.156 72.537C107.156 72.367 107.015 72.2289 106.841 72.2289Z" fill="white"/>
<path d="M113.413 72.2289H112.839C112.664 72.2289 112.523 72.367 112.523 72.537C112.523 72.7074 112.664 72.8455 112.839 72.8455H113.413C113.588 72.8455 113.729 72.7074 113.729 72.537C113.729 72.367 113.588 72.2289 113.413 72.2289Z" fill="white"/>
<path d="M115.275 72.2289H114.701C114.526 72.2289 114.385 72.367 114.385 72.537C114.385 72.7074 114.526 72.8455 114.701 72.8455H115.275C115.45 72.8455 115.591 72.7074 115.591 72.537C115.591 72.367 115.45 72.2289 115.275 72.2289Z" fill="white"/>
<path d="M111.626 72.1776H108.054C107.88 72.1776 107.739 72.3157 107.739 72.4858C107.739 72.6562 107.88 72.7939 108.054 72.7939H111.626C111.8 72.7939 111.941 72.6562 111.941 72.4858C111.941 72.3157 111.8 72.1776 111.626 72.1776Z" fill="white"/>
<path d="M120.389 72.1776H116.817C116.643 72.1776 116.501 72.3157 116.501 72.4858C116.501 72.6562 116.643 72.7939 116.817 72.7939H120.389C120.563 72.7939 120.704 72.6562 120.704 72.4858C120.704 72.3157 120.563 72.1776 120.389 72.1776Z" fill="white"/>
<path d="M108.594 73.6204H108.019C107.845 73.6204 107.704 73.7585 107.704 73.9285C107.704 74.0989 107.845 74.237 108.019 74.237H108.594C108.768 74.237 108.909 74.0989 108.909 73.9285C108.909 73.7585 108.768 73.6204 108.594 73.6204Z" fill="white"/>
<path d="M115.166 73.6204H114.591C114.417 73.6204 114.276 73.7585 114.276 73.9285C114.276 74.0989 114.417 74.237 114.591 74.237H115.166C115.34 74.237 115.481 74.0989 115.481 73.9285C115.481 73.7585 115.34 73.6204 115.166 73.6204Z" fill="white"/>
<path d="M117.028 73.6204H116.453C116.279 73.6204 116.138 73.7585 116.138 73.9285C116.138 74.0989 116.279 74.237 116.453 74.237H117.028C117.202 74.237 117.343 74.0989 117.343 73.9285C117.343 73.7585 117.202 73.6204 117.028 73.6204Z" fill="white"/>
<path d="M113.378 73.5691H109.807C109.632 73.5691 109.491 73.7068 109.491 73.8772C109.491 74.0476 109.632 74.1854 109.807 74.1854H113.378C113.552 74.1854 113.694 74.0476 113.694 73.8772C113.694 73.7068 113.552 73.5691 113.378 73.5691Z" fill="white"/>
<path d="M122.141 73.5691H118.57C118.395 73.5691 118.254 73.7068 118.254 73.8772C118.254 74.0476 118.395 74.1854 118.57 74.1854H122.141C122.315 74.1854 122.457 74.0476 122.457 73.8772C122.457 73.7068 122.315 73.5691 122.141 73.5691Z" fill="white"/>
<path d="M110.346 75.012H109.771C109.597 75.012 109.456 75.1501 109.456 75.3201C109.456 75.4905 109.597 75.6283 109.771 75.6283H110.346C110.52 75.6283 110.662 75.4905 110.662 75.3201C110.662 75.1501 110.52 75.012 110.346 75.012Z" fill="white"/>
<path d="M116.919 75.012H116.344C116.17 75.012 116.028 75.1501 116.028 75.3201C116.028 75.4905 116.17 75.6283 116.344 75.6283H116.919C117.093 75.6283 117.234 75.4905 117.234 75.3201C117.234 75.1501 117.093 75.012 116.919 75.012Z" fill="white"/>
<path d="M118.781 75.012H118.206C118.032 75.012 117.891 75.1501 117.891 75.3201C117.891 75.4905 118.032 75.6283 118.206 75.6283H118.781C118.955 75.6283 119.096 75.4905 119.096 75.3201C119.096 75.1501 118.955 75.012 118.781 75.012Z" fill="white"/>
<path d="M115.131 74.9606H111.56C111.385 74.9606 111.244 75.0983 111.244 75.2687C111.244 75.4388 111.385 75.5769 111.56 75.5769H115.131C115.305 75.5769 115.446 75.4388 115.446 75.2687C115.446 75.0983 115.305 74.9606 115.131 74.9606Z" fill="white"/>
<path d="M111.661 80.5449H111.086C110.912 80.5449 110.771 80.6827 110.771 80.8531C110.771 81.0235 110.912 81.1612 111.086 81.1612H111.661C111.835 81.1612 111.976 81.0235 111.976 80.8531C111.976 80.6827 111.835 80.5449 111.661 80.5449Z" fill="white"/>
<path d="M113.523 80.5449H112.948C112.774 80.5449 112.633 80.6827 112.633 80.8531C112.633 81.0235 112.774 81.1612 112.948 81.1612H113.523C113.697 81.1612 113.838 81.0235 113.838 80.8531C113.838 80.6827 113.697 80.5449 113.523 80.5449Z" fill="white"/>
<path d="M118.636 80.5963H115.064C114.89 80.5963 114.749 80.7344 114.749 80.9045C114.749 81.0749 114.89 81.213 115.064 81.213H118.636C118.81 81.213 118.952 81.0749 118.952 80.9045C118.952 80.7344 118.81 80.5963 118.636 80.5963Z" fill="white"/>
<path d="M105.088 80.5449H104.514C104.339 80.5449 104.198 80.6827 104.198 80.8531C104.198 81.0235 104.339 81.1612 104.514 81.1612H105.088C105.263 81.1612 105.404 81.0235 105.404 80.8531C105.404 80.6827 105.263 80.5449 105.088 80.5449Z" fill="white"/>
<path d="M109.873 80.5963H106.301C106.127 80.5963 105.986 80.7344 105.986 80.9045C105.986 81.0749 106.127 81.213 106.301 81.213H109.873C110.047 81.213 110.188 81.0749 110.188 80.9045C110.188 80.7344 110.047 80.5963 109.873 80.5963Z" fill="white"/>
<path d="M106.841 79.1534H106.266C106.092 79.1534 105.951 79.2916 105.951 79.4616C105.951 79.632 106.092 79.7697 106.266 79.7697H106.841C107.015 79.7697 107.156 79.632 107.156 79.4616C107.156 79.2916 107.015 79.1534 106.841 79.1534Z" fill="white"/>
<path d="M113.413 79.1534H112.839C112.664 79.1534 112.523 79.2916 112.523 79.4616C112.523 79.632 112.664 79.7697 112.839 79.7697H113.413C113.588 79.7697 113.729 79.632 113.729 79.4616C113.729 79.2916 113.588 79.1534 113.413 79.1534Z" fill="white"/>
<path d="M115.275 79.1534H114.701C114.526 79.1534 114.385 79.2916 114.385 79.4616C114.385 79.632 114.526 79.7697 114.701 79.7697H115.275C115.45 79.7697 115.591 79.632 115.591 79.4616C115.591 79.2916 115.45 79.1534 115.275 79.1534Z" fill="white"/>
<path d="M111.626 79.2047H108.054C107.88 79.2047 107.739 79.3428 107.739 79.5129C107.739 79.6833 107.88 79.8214 108.054 79.8214H111.626C111.8 79.8214 111.941 79.6833 111.941 79.5129C111.941 79.3428 111.8 79.2047 111.626 79.2047Z" fill="white"/>
<path d="M108.594 77.762H108.019C107.845 77.762 107.704 77.9001 107.704 78.0701C107.704 78.2405 107.845 78.3786 108.019 78.3786H108.594C108.768 78.3786 108.909 78.2405 108.909 78.0701C108.909 77.9001 108.768 77.762 108.594 77.762Z" fill="white"/>
<path d="M115.166 77.762H114.591C114.417 77.762 114.276 77.9001 114.276 78.0701C114.276 78.2405 114.417 78.3786 114.591 78.3786H115.166C115.34 78.3786 115.481 78.2405 115.481 78.0701C115.481 77.9001 115.34 77.762 115.166 77.762Z" fill="white"/>
<path d="M117.028 77.762H116.453C116.279 77.762 116.138 77.9001 116.138 78.0701C116.138 78.2405 116.279 78.3786 116.453 78.3786H117.028C117.202 78.3786 117.343 78.2405 117.343 78.0701C117.343 77.9001 117.202 77.762 117.028 77.762Z" fill="white"/>
<path d="M113.378 77.8132H109.807C109.632 77.8132 109.491 77.9513 109.491 78.1217C109.491 78.2918 109.632 78.4299 109.807 78.4299H113.378C113.552 78.4299 113.694 78.2918 113.694 78.1217C113.694 77.9513 113.552 77.8132 113.378 77.8132Z" fill="white"/>
<path d="M110.346 76.3704H109.771C109.597 76.3704 109.456 76.5085 109.456 76.6785C109.456 76.8489 109.597 76.987 109.771 76.987H110.346C110.52 76.987 110.662 76.8489 110.662 76.6785C110.662 76.5085 110.52 76.3704 110.346 76.3704Z" fill="white"/>
<path d="M116.919 76.3704H116.344C116.17 76.3704 116.028 76.5085 116.028 76.6785C116.028 76.8489 116.17 76.987 116.344 76.987H116.919C117.093 76.987 117.234 76.8489 117.234 76.6785C117.234 76.5085 117.093 76.3704 116.919 76.3704Z" fill="white"/>
<path d="M118.781 76.3704H118.206C118.032 76.3704 117.891 76.5085 117.891 76.6785C117.891 76.8489 118.032 76.987 118.206 76.987H118.781C118.955 76.987 119.096 76.8489 119.096 76.6785C119.096 76.5085 118.955 76.3704 118.781 76.3704Z" fill="white"/>
<path d="M115.131 76.4218H111.56C111.385 76.4218 111.244 76.5599 111.244 76.7303C111.244 76.9003 111.385 77.0384 111.56 77.0384H115.131C115.305 77.0384 115.446 76.9003 115.446 76.7303C115.446 76.5599 115.305 76.4218 115.131 76.4218Z" fill="white"/>
<path d="M102.033 96.8521L99.3359 92.6854L107.803 86.0895L111.298 82.3059C111.752 81.8145 112.331 81.4479 112.975 81.243C113.62 81.0382 114.308 81.0023 114.971 81.1386C115.634 81.2753 116.249 81.5792 116.754 82.0208C117.259 82.4623 117.637 83.0256 117.849 83.6541C118.164 84.586 118.096 85.6009 117.661 86.4848C117.224 87.3687 116.454 88.0524 115.511 88.3914L109.985 90.381L102.033 96.8521Z" fill="#FFB6B6"/>
<path d="M38.7368 66.6402V86.892H53.256V66.6402C53.2564 66.4946 53.2087 66.3525 53.1205 66.2352C53.0322 66.1179 52.9076 66.0314 52.7651 65.9884C52.698 65.9669 52.6277 65.9561 52.557 65.9568H39.438C39.3461 65.9568 39.2548 65.9744 39.1699 66.0085C39.0849 66.0429 39.0076 66.0931 38.9423 66.1566C38.8771 66.2198 38.8255 66.2955 38.7903 66.3783C38.7551 66.4612 38.7368 66.5502 38.7368 66.6402ZM44.4029 73.5988C44.407 73.1996 44.5718 72.8179 44.862 72.5366C45.1521 72.2558 45.5445 72.0983 45.953 72.0983C46.3615 72.0983 46.7535 72.2558 47.044 72.5366C47.3342 72.8179 47.499 73.1996 47.5031 73.5988V75.9485C47.5009 76.3489 47.3367 76.732 47.0462 77.0143C46.7557 77.297 46.3626 77.4552 45.953 77.4552C45.5434 77.4552 45.1503 77.297 44.8598 77.0143C44.5693 76.732 44.4051 76.3489 44.4029 75.9485V73.5988Z" fill="#2F2E41"/>
<path d="M38.6919 86.2445V88.1974C38.6923 88.2986 38.7337 88.3955 38.8066 88.4672C38.8795 88.5389 38.9784 88.5795 39.0821 88.5802H52.9103C53.014 88.5798 53.1133 88.5393 53.1862 88.4676C53.2594 88.3958 53.3005 88.2986 53.3005 88.1974V86.2445H38.6919Z" fill="#3F3D56"/>
<path d="M15.8955 36.1281V73.1053C15.8959 73.5763 16.0876 74.0283 16.4286 74.3612C16.7696 74.6944 17.232 74.8821 17.7142 74.8824H73.7914C74.2735 74.8821 74.7358 74.6944 75.0769 74.3612C75.418 74.0283 75.6096 73.5763 75.61 73.1053V36.1281C75.6089 35.6573 75.4169 35.2061 75.0758 34.8734C74.7351 34.5407 74.2731 34.3535 73.7914 34.3529H17.7142C17.2324 34.3535 16.7705 34.5407 16.4296 34.8734C16.0887 35.2061 15.8967 35.6573 15.8955 36.1281Z" fill="#3F3D56"/>
<path d="M17.2109 36.5883V72.6489C17.2114 72.9007 17.3139 73.1422 17.4961 73.3201C17.6783 73.498 17.9253 73.5981 18.1829 73.5988H73.3245C73.582 73.5981 73.829 73.498 74.0111 73.3201C74.1935 73.1422 74.2957 72.9007 74.2964 72.6489V36.5883C74.2964 36.3361 74.1939 36.0943 74.0118 35.916C73.8293 35.7374 73.5824 35.6369 73.3245 35.6364H18.1829C17.925 35.6369 17.6778 35.7374 17.4955 35.916C17.3133 36.0943 17.211 36.3361 17.2109 36.5883Z" fill="white"/>
<path d="M27.4443 88.4481C27.5004 88.5167 27.5718 88.5723 27.653 88.6103C27.7342 88.648 27.8231 88.6677 27.9132 88.6673H60.7185C60.8083 88.667 60.8969 88.6472 60.9779 88.6096C61.0589 88.5719 61.1303 88.517 61.1867 88.4489C61.2431 88.3807 61.2834 88.3014 61.3047 88.216C61.3259 88.131 61.327 88.0421 61.3087 87.9563L60.7995 85.5927C60.7786 85.4962 60.7328 85.4065 60.6672 85.3319C60.6016 85.2569 60.5177 85.1991 60.4236 85.1643C60.3555 85.1381 60.2829 85.1245 60.2093 85.1245H28.4204C28.3471 85.1245 28.2744 85.1381 28.2062 85.1643C28.1119 85.1991 28.0281 85.2569 27.9625 85.3319C27.8968 85.4065 27.8514 85.4962 27.8303 85.5927L27.321 87.9563C27.3029 88.0421 27.3046 88.1307 27.3259 88.2157C27.3472 88.3007 27.3877 88.38 27.4443 88.4481Z" fill="#2F2E41"/>
<path d="M71.535 40.6039H19.9394C19.8858 40.6029 19.8348 40.581 19.7973 40.5437C19.7598 40.506 19.7388 40.4558 19.7388 40.4034C19.7388 40.351 19.7598 40.3008 19.7973 40.2631C19.8348 40.2258 19.8858 40.204 19.9394 40.2029H71.535C71.5885 40.204 71.6398 40.2258 71.6772 40.2631C71.7146 40.3008 71.7358 40.351 71.7358 40.4034C71.7358 40.4558 71.7146 40.506 71.6772 40.5437C71.6398 40.581 71.5885 40.6029 71.535 40.6039Z" fill="#3F3D56"/>
<path d="M23.4515 39.1794C24.1156 39.1794 24.6539 38.6413 24.6539 37.978C24.6539 37.3147 24.1156 36.777 23.4515 36.777C22.7874 36.777 22.249 37.3147 22.249 37.978C22.249 38.6413 22.7874 39.1794 23.4515 39.1794Z" fill="#3F3D56"/>
<path d="M27.6053 39.1794C28.2694 39.1794 28.8078 38.6413 28.8078 37.978C28.8078 37.3147 28.2694 36.777 27.6053 36.777C26.9412 36.777 26.4028 37.3147 26.4028 37.978C26.4028 38.6413 26.9412 39.1794 27.6053 39.1794Z" fill="#3F3D56"/>
<path d="M31.7596 39.1794C32.4237 39.1794 32.962 38.6413 32.962 37.978C32.962 37.3147 32.4237 36.777 31.7596 36.777C31.0955 36.777 30.5571 37.3147 30.5571 37.978C30.5571 38.6413 31.0955 39.1794 31.7596 39.1794Z" fill="#3F3D56"/>
<path d="M69.0335 37.0741H66.0832C66.025 37.0752 65.9693 37.0988 65.9286 37.1397C65.8879 37.1803 65.8652 37.2352 65.8652 37.2922C65.8652 37.3492 65.8879 37.4038 65.9286 37.4447C65.9693 37.4856 66.025 37.5092 66.0832 37.5103H69.0335C69.0921 37.5096 69.1482 37.4863 69.1896 37.4454C69.2306 37.4045 69.2537 37.3496 69.2537 37.2922C69.2537 37.2348 69.2306 37.1799 69.1896 37.139C69.1482 37.0981 69.0921 37.0748 69.0335 37.0741Z" fill="#3F3D56"/>
<path d="M69.0334 37.8934H66.0831C66.0248 37.8949 65.9692 37.9182 65.9285 37.9591C65.8875 38 65.8647 38.0545 65.8647 38.1115C65.8647 38.1686 65.8875 38.2235 65.9285 38.2644C65.9692 38.3049 66.0248 38.3286 66.0831 38.33H69.0334C69.0924 38.3293 69.1484 38.306 69.1898 38.2651C69.2309 38.2242 69.2543 38.1689 69.2543 38.1115C69.2543 38.0541 69.2309 37.9993 69.1898 37.9584C69.1484 37.9175 69.0924 37.8942 69.0334 37.8934Z" fill="#3F3D56"/>
<path d="M69.0335 38.7128H66.0832C66.025 38.7142 65.9693 38.7379 65.9286 38.7784C65.8879 38.8193 65.8652 38.8742 65.8652 38.9312C65.8652 38.9883 65.8879 39.0428 65.9286 39.0837C65.9693 39.1246 66.025 39.1479 66.0832 39.1493H69.0335C69.0921 39.1486 69.1482 39.1253 69.1896 39.0844C69.2306 39.0435 69.2537 38.9886 69.2537 38.9312C69.2537 38.8738 69.2306 38.8186 69.1896 38.7781C69.1482 38.7372 69.0921 38.7138 69.0335 38.7128Z" fill="#3F3D56"/>
<path d="M140.161 87.1015C140.25 87.3547 140.419 87.5739 140.644 87.7274C140.868 87.8813 141.137 87.9613 141.411 87.9567L146.764 87.8218C147.04 87.8168 147.307 87.7242 147.525 87.5585C147.743 87.3927 147.9 87.1624 147.973 86.9024L148.731 78.9866C148.999 79.1057 149.292 79.1642 149.587 79.1585C149.843 79.1524 150.096 79.0968 150.33 78.9952C150.564 78.8934 150.776 78.7477 150.953 78.5662C151.129 78.3847 151.268 78.1709 151.36 77.937C151.452 77.7031 151.496 77.4541 151.49 77.2034C151.483 76.953 151.426 76.7062 151.322 76.4773C151.218 76.2484 151.069 76.0414 150.883 75.8689C150.698 75.6963 150.479 75.5611 150.24 75.4711C150 75.381 149.745 75.338 149.489 75.3441C149.371 75.3437 149.253 75.3559 149.138 75.38C149.013 75.2472 148.86 75.1418 148.691 75.0704C148.521 74.999 148.338 74.9627 148.153 74.9645L139.918 75.1722C139.85 75.1748 139.782 75.183 139.715 75.197C139.535 75.23 139.363 75.3003 139.213 75.4033C139.062 75.5062 138.936 75.6397 138.843 75.7943C138.749 75.9489 138.691 76.1211 138.672 76.2997C138.652 76.478 138.672 76.6588 138.73 76.8289L140.161 87.1015ZM148.886 78.4492L149.425 76.5627C149.486 76.3449 149.487 76.115 149.429 75.8965C149.455 75.8965 149.478 75.8843 149.504 75.8843C149.874 75.8768 150.232 76.0127 150.499 76.2624C150.766 76.5125 150.921 76.8554 150.929 77.2166C150.938 77.5779 150.8 77.9277 150.545 78.1892C150.29 78.451 149.939 78.6031 149.57 78.6125C149.331 78.62 149.094 78.5633 148.886 78.4492Z" fill="#2F2E41"/>
<path d="M139.715 75.197C139.891 76.1774 141.863 76.8665 144.235 76.7467C146.416 76.6484 148.199 75.9001 148.526 75.0133C148.405 74.9782 148.279 74.9617 148.153 74.9646L139.918 75.1723C139.85 75.1748 139.782 75.183 139.715 75.197Z" fill="#3F3D56"/>
<path d="M144.67 82.7515C144.68 82.749 144.691 82.7443 144.7 82.7386L145.862 81.9949C145.877 81.9859 145.888 81.9737 145.896 81.9594C145.904 81.9447 145.908 81.9285 145.908 81.9124C145.908 81.8959 145.904 81.8798 145.896 81.8654C145.888 81.8511 145.877 81.8389 145.863 81.8299L144.654 81.0565C144.643 81.0493 144.631 81.0443 144.617 81.0418C144.605 81.0392 144.591 81.0392 144.578 81.0421C144.565 81.0446 144.553 81.0496 144.542 81.0572C144.531 81.0644 144.522 81.0737 144.514 81.0844C144.507 81.0956 144.502 81.1074 144.499 81.1203C144.497 81.1332 144.497 81.1462 144.5 81.1591C144.502 81.1716 144.508 81.1838 144.515 81.1946C144.523 81.2053 144.533 81.2143 144.543 81.2215L145.623 81.912L144.589 82.5732C144.57 82.5861 144.554 82.6055 144.548 82.6277C144.541 82.6503 144.542 82.6743 144.552 82.6955C144.562 82.717 144.579 82.7342 144.6 82.7447C144.622 82.7547 144.646 82.7572 144.67 82.7515Z" fill="#20B6F7"/>
<path d="M142.833 82.8343C142.853 82.8293 142.87 82.8189 142.884 82.8045C142.897 82.7898 142.906 82.7715 142.909 82.7522C142.911 82.7324 142.908 82.7127 142.899 82.6951C142.89 82.6775 142.876 82.6628 142.859 82.6528L141.787 82.0526L142.823 81.3007C142.833 81.2932 142.843 81.2835 142.849 81.2724C142.856 81.2613 142.861 81.2487 142.863 81.2358C142.865 81.2233 142.864 81.21 142.861 81.1974C142.857 81.1849 142.852 81.173 142.844 81.1626C142.836 81.1522 142.826 81.1436 142.814 81.1368C142.803 81.1303 142.791 81.126 142.777 81.1239C142.764 81.1221 142.751 81.1228 142.738 81.126C142.725 81.1289 142.713 81.1346 142.703 81.1425L141.543 81.9841C141.529 81.9938 141.519 82.0067 141.512 82.0218C141.504 82.0365 141.501 82.0526 141.502 82.0691C141.503 82.0856 141.508 82.1014 141.517 82.1154C141.526 82.1294 141.538 82.1409 141.553 82.1488L142.758 82.8243C142.781 82.8368 142.808 82.8408 142.833 82.8343Z" fill="#20B6F7"/>
<path d="M144.554 83.4033C144.563 83.4008 144.573 83.3969 144.581 83.3919C144.593 83.385 144.603 83.3761 144.61 83.3657C144.618 83.3553 144.624 83.3434 144.627 83.3309C144.63 83.3183 144.631 83.305 144.629 83.2925C144.627 83.2796 144.622 83.2674 144.615 83.2563L142.967 80.6085C142.953 80.5862 142.931 80.5701 142.905 80.564C142.879 80.5579 142.851 80.5622 142.828 80.5758C142.805 80.5895 142.789 80.6113 142.783 80.6368C142.776 80.6619 142.781 80.6888 142.794 80.7114L144.443 83.3589C144.454 83.3768 144.471 83.3911 144.491 83.399C144.511 83.4069 144.533 83.4084 144.554 83.4033Z" fill="#20B6F7"/>
<path d="M51.902 51.5039H42.9719C42.6078 51.5039 42.3125 51.7923 42.3125 52.1482V53.0009C42.3125 53.3567 42.6078 53.6455 42.9719 53.6455H51.902C52.2665 53.6455 52.5618 53.3567 52.5618 53.0009V52.1482C52.5618 51.7923 52.2665 51.5039 51.902 51.5039Z" fill="#20B6F7"/>
<path d="M57.1072 55.7872H37.7664C37.4022 55.7872 37.1069 56.0757 37.1069 56.4315V57.2842C37.1069 57.6401 37.4022 57.9289 37.7664 57.9289H57.1072C57.4714 57.9289 57.7667 57.6401 57.7667 57.2842V56.4315C57.7667 56.0757 57.4714 55.7872 57.1072 55.7872Z" fill="#E6E6E6"/>
<path d="M57.1072 60.0704H37.7664C37.4022 60.0704 37.1069 60.3589 37.1069 60.7151V61.5674C37.1069 61.9233 37.4022 62.2121 37.7664 62.2121H57.1072C57.4714 62.2121 57.7667 61.9233 57.7667 61.5674V60.7151C57.7667 60.3589 57.4714 60.0704 57.1072 60.0704Z" fill="#E6E6E6"/>
<path d="M58.7471 74.4132L58.7907 74.5485L58.7929 74.5531L60.1118 78.4701L61.6285 82.9844L64.4824 91.4676L64.5099 92.7856V92.7899L64.722 103.391L64.1344 104.828L64.796 107.184C64.796 107.184 64.4916 103.622 62.8595 105.668C61.9351 106.83 60.854 108.019 59.9663 109.135C61.2596 109.646 62.5737 110.108 63.9083 110.522C64.1967 110.612 64.4872 110.698 64.7773 110.783C64.8396 110.801 64.9019 110.82 64.9642 110.838C69.3887 112.116 73.9627 112.835 78.5744 112.975C78.814 112.982 79.0492 112.986 79.2775 112.991C79.3581 112.993 79.4365 112.995 79.5149 112.995C79.7732 112.998 80.0289 113 80.2872 113C80.8081 113 81.3269 112.993 81.8431 112.977C85.6653 112.872 89.4648 112.37 93.1783 111.479C93.153 109.982 93.0837 108.231 92.9845 106.362C92.9383 105.445 91.9033 104.452 91.841 103.492C91.7975 102.771 92.7265 102.093 92.6778 101.361C92.3646 96.8536 91.9726 98.5838 91.6821 95.3918C91.652 95.0786 91.6245 94.7791 91.5993 94.4932C91.4124 92.443 91.2834 91.1613 91.2834 91.1613L92.5236 83.5228L94.4715 71.5301L94.3217 71.2891L94.1535 71.208L83.879 66.2389L83.321 64.842C83.1583 64.4398 82.8762 64.094 82.5113 63.8497C82.1461 63.6051 81.7141 63.473 81.2716 63.4702L74.5035 63.4433C74.1521 63.4415 73.8055 63.5218 73.4923 63.6775C73.1794 63.8328 72.9087 64.0592 72.7028 64.3376L70.8703 66.8175L58.7471 74.4132Z" fill="#3F3D56"/>
<path d="M66.0427 89.58L64.5095 92.7856L63.4632 94.9749L61.6625 104.186L60.7613 105.121L59.989 101.811L51.9063 103.565C51.6411 102.125 51.8353 103.614 51.6719 102.035C51.7177 101.99 51.766 101.945 51.8148 101.899C51.9437 101.783 52.0522 101.672 52.0496 101.566C51.9576 96.1193 52.2342 86.85 54.5441 81.2341C54.9057 80.3172 55.3827 79.448 55.9641 78.6459C56.0103 78.5852 56.0539 78.5242 56.0979 78.4636C57.1629 77.0061 57.8359 75.5712 58.7902 74.5506V74.5484C58.7961 74.5438 58.8016 74.5384 58.8064 74.5327C58.81 74.5309 58.813 74.5287 58.8155 74.5258L65.3719 71.129L65.6529 78.8511L65.8536 84.4013L66.0427 89.58Z" fill="#3F3D56"/>
<path d="M89.6831 90.4903L91.5981 94.4941L92.2663 95.8882L94.0662 105.098L94.9649 106.031L95.7387 102.722L96.1025 102.649L102.662 101.322L104.573 107.255C105.004 106.554 105.174 105.728 105.054 104.918C104.934 104.108 104.531 103.364 103.914 102.811C103.784 102.695 103.675 102.583 103.678 102.477C103.787 96.0704 103.386 84.3726 99.7646 79.558C98.6142 78.0302 97.924 76.5085 96.9202 75.4452C96.9169 75.442 96.9169 75.4391 96.9139 75.4391L94.4703 71.5297L94.3212 71.2897L94.1534 71.2075L89.6831 90.4903Z" fill="#3F3D56"/>
<path d="M78.0826 61.561C83.0556 61.561 87.087 57.6218 87.087 52.7624C87.087 47.9031 83.0556 43.9639 78.0826 43.9639C73.11 43.9639 69.0786 47.9031 69.0786 52.7624C69.0786 57.6218 73.11 61.561 78.0826 61.561Z" fill="#FFB6B6"/>
<path d="M90.2531 46.6167C90.1834 46.5438 90.0992 46.4854 90.0058 46.4448C89.9123 46.4046 89.8116 46.3831 89.7094 46.3817L89.8449 46.0143C89.8893 45.8985 89.901 45.7736 89.8794 45.652C89.8581 45.5301 89.8035 45.4163 89.7222 45.322C89.6409 45.2273 89.535 45.1559 89.4163 45.1143C89.2972 45.073 89.169 45.0633 89.0448 45.0863L88.5517 45.1789L88.5982 44.8571C88.6158 44.7373 88.6015 44.6149 88.5564 44.5023C88.511 44.3893 88.4366 44.2899 88.3399 44.2139C88.2436 44.1378 88.1285 44.0876 88.0062 44.0682C87.8838 44.0485 87.7585 44.0607 87.6424 44.1027C87.5365 44.1436 87.4229 44.1604 87.3097 44.1525C87.1965 44.1446 87.0862 44.1124 86.9877 44.0575C86.8884 44.0044 86.8023 43.9305 86.7353 43.8415C86.6682 43.7525 86.6221 43.6503 86.5997 43.542L86.4279 42.7323L86.4096 42.6889C85.5728 41.3265 83.9645 40.3353 81.9961 39.9719C80.2441 39.6462 78.4479 39.8119 76.7157 39.9679C76.0288 40.0311 75.2528 40.1021 74.6062 40.4892C74.0567 40.821 73.5918 41.4843 73.6867 42.154C71.9791 41.6425 70.1483 42.6634 69.2409 43.9509C68.166 45.4831 67.9901 47.4026 67.9619 48.9032C67.885 52.4535 68.6346 55.3582 70.1846 57.5382C70.2978 57.6964 70.326 58.0261 70.5502 58.1366L70.5041 58.0634C70.7547 58.1861 71.0093 58.3834 70.914 58.5947C70.6415 59.2027 72.4539 60.5476 73.731 60.992C76.061 61.8035 79.159 61.7343 81.3373 61.4422L81.4143 60.9386C82.2001 60.8338 82.754 60.6344 82.9098 60.3227C83.1845 60.0934 83.419 59.8882 83.6231 59.6985L83.6249 59.6967C83.6289 59.6927 83.637 59.6866 83.641 59.6827C84.6254 58.7604 84.8537 58.2352 84.9566 57.4356C85.0555 56.6518 84.88 55.8557 84.7001 55.139C88.4868 55.7119 83.2087 51.1976 86.7371 50.3248C86.7774 50.3126 86.8184 50.303 86.8602 50.2954C86.9631 50.2718 87.0665 50.2481 87.1654 50.2201C87.6427 50.0938 88.0996 49.903 88.5235 49.6537C89.5094 49.0671 89.8347 48.2891 90.3439 47.4123C90.4176 47.2875 90.4483 47.1429 90.4318 46.9998C90.4157 46.8566 90.3531 46.7225 90.2531 46.6167Z" fill="#2F2E41"/>
<path d="M109.93 91.1167C109.928 91.4626 109.924 91.9461 109.908 92.5445C109.905 92.6273 109.904 92.7124 109.901 92.7992C109.875 93.899 109.849 94.8213 109.807 95.8462C109.804 95.9173 109.803 95.9865 109.799 96.0575C109.742 97.4871 109.653 99.1516 109.499 101.788C109.215 106.657 108.717 102.457 108.218 104.165C108.194 104.25 108.167 104.351 108.143 104.469C108.068 104.899 107.94 105.319 107.763 105.719C107.499 105.873 107.226 106.022 106.957 106.169C106.191 106.586 105.413 106.987 104.629 107.368C104.189 107.581 103.746 107.791 103.301 107.992C103.231 108.024 103.162 108.055 103.093 108.085C100.817 109.114 98.4707 109.989 96.071 110.703C95.6024 110.842 95.1357 110.976 94.6627 111.1C94.1696 111.234 93.6765 111.361 93.1775 111.479C89.4641 112.37 85.6646 112.873 81.8427 112.978C81.3276 112.994 80.8081 113 80.2868 113C80.0281 113 79.7735 112.998 79.5149 112.996C79.4361 112.996 79.3573 112.994 79.2786 112.992C79.05 112.986 78.8137 112.982 78.5752 112.976C73.9634 112.836 69.3894 112.117 64.9653 110.838L64.7773 110.784C64.4861 110.697 64.1974 110.612 63.9083 110.522C62.5744 110.109 61.2603 109.647 59.9656 109.135C58.9775 108.747 58.0008 108.329 57.0354 107.883C57.0266 107.881 57.0186 107.877 57.0113 107.872C56.8094 107.781 56.605 107.686 56.4031 107.589C56.3767 107.576 56.3485 107.562 56.3203 107.548C55.5663 107.189 54.8208 106.812 54.0833 106.418C53.4627 105.026 52.5897 104.76 52.0482 103.535C51.8906 103.172 51.7767 102.791 51.7086 102.402C51.7086 102.398 51.7067 102.394 51.7067 102.388C51.7632 103.123 51.4664 101.085 51.7045 102.38C51.7027 102.356 51.7005 102.331 51.6987 102.301C51.6924 102.23 51.6844 102.143 51.6723 102.035C50.9791 95.4215 51.0238 87.8588 50.7227 81.6269C50.7025 81.224 50.6817 80.8384 50.66 80.4696C50.6538 80.3473 50.6458 80.2268 50.6377 80.1084C50.652 80.0729 50.6681 80.0352 50.6861 79.9997C50.6901 79.9893 50.6948 79.9796 50.7003 79.9699C50.7062 79.9577 50.7132 79.9459 50.7205 79.9344C50.7245 79.9287 50.7308 79.9208 50.7348 79.9147C50.7377 79.9079 50.741 79.9014 50.7447 79.8949C50.763 79.8673 50.7831 79.8379 50.8055 79.8103C50.8154 79.7984 50.8238 79.7884 50.8337 79.7787C50.8407 79.7683 50.8487 79.7593 50.8579 79.7507C50.8641 79.7414 50.8718 79.7328 50.8802 79.7253C50.8883 79.7174 50.8963 79.7073 50.9066 79.6976C50.9106 79.6915 50.9161 79.6862 50.9227 79.6819C50.9385 79.6639 50.9561 79.6474 50.9751 79.6323C51.0473 79.5678 51.1242 79.5082 51.2056 79.4548C51.2338 79.4368 51.2642 79.4193 51.2924 79.3995C51.4961 79.2804 51.7104 79.18 51.9331 79.0993C52.0097 79.0717 52.0866 79.0458 52.1694 79.0182C52.1999 79.0103 52.2281 79.0006 52.2585 78.9906C52.3028 78.977 52.3471 78.963 52.3937 78.9533C52.6241 78.8862 52.8729 78.8288 53.1414 78.7753C53.1736 78.7696 53.2081 78.7635 53.2425 78.7556C53.2909 78.7459 53.3414 78.738 53.392 78.7301C53.4609 78.7183 53.5316 78.7065 53.6023 78.6946C54.2024 78.6017 54.8834 78.5325 55.6352 78.4873C55.7059 78.4833 55.7766 78.4794 55.8473 78.4754C55.9301 78.4715 56.0129 78.4676 56.0979 78.4636C56.1686 78.4597 56.2415 78.4575 56.3141 78.4557C56.3848 78.4518 56.4577 78.4496 56.5324 78.4478C56.7365 78.4417 56.9468 78.4356 57.1607 78.4317C57.7711 78.4198 58.4137 78.4238 59.0885 78.4378C59.4017 78.4457 59.7212 78.4536 60.0484 78.4676C60.0707 78.4676 60.0909 78.4693 60.111 78.4693C60.396 78.4794 60.6829 78.4912 60.9782 78.507C61.1841 78.5167 61.3925 78.5267 61.6006 78.5386C61.7966 78.5504 61.9945 78.5623 62.1945 78.5759C62.3502 78.5838 62.5059 78.5956 62.6634 78.6057C62.7968 78.6153 62.9301 78.6254 63.0635 78.6333L63.2456 78.6451C63.3445 78.653 63.4434 78.6588 63.5445 78.6688C63.7669 78.6867 63.9889 78.7043 64.2153 78.7223C64.4396 78.742 64.6682 78.7617 64.8964 78.7814C65.1246 78.8012 65.3551 78.8227 65.5855 78.8446C65.6097 78.8464 65.6321 78.8485 65.654 78.8503C65.8643 78.8722 66.0746 78.8919 66.2867 78.9138C66.3351 78.9178 66.3857 78.9217 66.4344 78.9274C66.6366 78.9472 66.8429 78.9705 67.0469 78.9917C67.1096 78.9985 67.1719 79.0049 67.2349 79.0114C67.3946 79.0286 67.5525 79.0433 67.7133 79.0616C67.9255 79.0853 68.142 79.1072 68.3519 79.1348C68.5157 79.1527 68.6794 79.1703 68.8428 79.19C69.0996 79.2198 69.3605 79.2514 69.621 79.2847C69.7199 79.2966 69.8192 79.3084 69.9181 79.3224C70.6618 79.4132 71.4136 79.514 72.1774 79.6187C73.3351 79.7787 74.5111 79.9523 75.6956 80.14C76.8819 80.3276 78.0747 80.5256 79.2742 80.7344C79.5775 80.7875 79.8805 80.8409 80.1857 80.8962C80.3231 80.922 80.4605 80.9475 80.5978 80.9733C80.8323 81.0145 81.0668 81.0579 81.3012 81.1017C81.5357 81.1451 81.7702 81.1885 82.0043 81.2337C82.2835 81.2872 82.5641 81.3406 82.8429 81.3937C84.6798 81.7492 86.5068 82.1284 88.2892 82.5252C88.5823 82.5904 88.875 82.6575 89.1662 82.7228C89.748 82.8552 90.3247 82.9893 90.8958 83.1257C91.0534 83.1612 91.2091 83.1985 91.3648 83.2362C91.7527 83.3309 92.1407 83.4256 92.5225 83.5224L92.5895 83.5404C92.8701 83.6074 93.1449 83.6763 93.42 83.7477C94.0685 83.9134 94.7063 84.0813 95.3335 84.251C95.7497 84.3636 96.1615 84.4774 96.5682 84.5929C97.1767 84.7643 97.7728 84.9383 98.3527 85.1141C98.496 85.1575 98.6396 85.2009 98.781 85.2422C99.2052 85.3706 99.6236 85.5012 100.03 85.6314C100.353 85.734 100.668 85.8387 100.98 85.9435C101.291 86.0479 101.596 86.1526 101.895 86.2574C102.087 86.3245 102.277 86.3955 102.467 86.4626C102.74 86.5616 103.008 86.6602 103.271 86.7589C103.352 86.7887 103.431 86.8202 103.51 86.8496C103.56 86.8715 103.609 86.8891 103.657 86.9088C103.752 86.9465 103.849 86.982 103.942 87.0197C104.037 87.0552 104.13 87.0925 104.223 87.132C104.314 87.1675 104.407 87.2051 104.496 87.2428C104.587 87.2783 104.676 87.3156 104.765 87.3551C104.839 87.3849 104.912 87.4164 104.983 87.448C105.126 87.5093 105.27 87.5703 105.409 87.6335C105.478 87.6654 105.547 87.6948 105.615 87.7264L105.773 87.7974C105.795 87.8092 105.817 87.8193 105.84 87.829C105.89 87.8527 105.943 87.8785 105.993 87.9022C106.11 87.9556 106.226 88.0126 106.339 88.0661C106.49 88.1411 106.638 88.216 106.779 88.2892C106.923 88.3642 107.062 88.4392 107.196 88.5124C107.218 88.5242 107.238 88.536 107.26 88.5479C107.29 88.5637 107.321 88.5816 107.351 88.5974C107.454 88.6544 107.553 88.7136 107.652 88.771C107.846 88.8876 108.03 89.002 108.202 89.1165C108.24 89.1423 108.277 89.1678 108.315 89.1914C108.443 89.2804 108.564 89.3672 108.677 89.4562C108.677 89.4583 108.677 89.4583 108.679 89.4583C108.717 89.486 108.754 89.5154 108.79 89.543C108.82 89.5706 108.853 89.5943 108.883 89.6219C108.988 89.7109 109.085 89.7959 109.174 89.8827C109.204 89.9096 109.232 89.9379 109.259 89.9677C109.271 89.9771 109.282 89.9878 109.291 89.9993C109.332 90.0388 109.368 90.0782 109.402 90.1177C109.408 90.1231 109.412 90.1292 109.416 90.1356C109.465 90.1909 109.509 90.2461 109.552 90.3013C109.572 90.329 109.594 90.3566 109.612 90.3842C109.637 90.4179 109.661 90.4534 109.681 90.4868C109.699 90.5148 109.716 90.5442 109.732 90.5718C109.775 90.6432 109.811 90.7178 109.841 90.795C109.864 90.8473 109.882 90.9015 109.895 90.9571C109.911 91.0095 109.922 91.0629 109.93 91.1167Z" fill="#2F2E41"/>
<path opacity="0.2" d="M109.929 91.1167C109.928 91.4625 109.924 91.9461 109.907 92.5444C109.905 92.6273 109.901 92.7123 109.899 92.7991C109.879 93.6386 109.849 94.6753 109.806 95.8462C109.804 95.9172 109.802 95.9864 109.798 96.0575C109.741 97.487 109.653 99.1515 109.499 101.788C109.214 106.657 108.717 102.457 108.218 104.165C106.831 103.332 105.312 102.459 103.687 101.563C103.394 101.401 103.099 101.238 102.8 101.075C99.5508 99.3036 95.9213 97.4475 92.1324 95.6091C91.9829 95.5362 91.8313 95.4631 91.6818 95.392C83.0024 91.1999 73.5291 87.1222 65.8542 84.4013C64.3726 83.8757 62.9581 83.4018 61.6286 82.9853C58.8278 82.1104 56.4069 81.4984 54.5436 81.2337C52.6037 80.9574 51.2639 81.0561 50.7224 81.6268C50.7023 81.224 50.681 80.8383 50.6598 80.4696C50.6517 80.3472 50.6437 80.2267 50.6353 80.1083C50.6481 80.0757 50.6642 80.0448 50.6799 80.0133C50.6821 80.009 50.6836 80.0043 50.6858 79.9996C50.6898 79.9896 50.6946 79.9795 50.7001 79.9699C50.706 79.9577 50.7129 79.9458 50.7202 79.9343C50.7268 79.9204 50.7349 79.9071 50.7444 79.8949C50.7627 79.8673 50.7829 79.8378 50.8052 79.8102C50.8214 79.7894 50.8389 79.7697 50.8576 79.7507C50.8639 79.7413 50.8716 79.7327 50.88 79.7252C50.888 79.7173 50.8961 79.7073 50.9064 79.6976C50.9104 79.6915 50.9159 79.6861 50.9225 79.6818C50.9382 79.6639 50.9558 79.6474 50.9749 79.6323C51.047 79.5677 51.124 79.5082 51.2053 79.4547C51.2335 79.4368 51.2639 79.4192 51.2921 79.3995C51.4958 79.2804 51.7101 79.1799 51.9329 79.0992C52.0095 79.0716 52.0864 79.0458 52.1692 79.0182C52.1996 79.0103 52.2278 79.0006 52.2582 78.9905C52.3026 78.9769 52.3469 78.9629 52.3934 78.9532C52.6239 78.8861 52.8726 78.8287 53.1412 78.7753C53.2221 78.7595 53.3067 78.7437 53.3917 78.7301C53.4606 78.7182 53.5313 78.7064 53.602 78.6946C54.2021 78.6017 54.8832 78.5324 55.635 78.4872C55.7057 78.4833 55.7764 78.4793 55.8471 78.4754C55.9299 78.4714 56.0127 78.4675 56.0977 78.4636C56.1684 78.4596 56.2413 78.4575 56.3138 78.4557C56.3845 78.4514 56.4574 78.4496 56.5322 78.4474C56.7362 78.4417 56.9465 78.4356 57.1605 78.4316C57.7708 78.4219 58.4134 78.4259 59.0883 78.4395C59.4015 78.4456 59.721 78.4557 60.0481 78.4693C60.0686 78.4693 60.0906 78.4714 60.1108 78.4714C60.3958 78.4793 60.6849 78.493 60.9779 78.507C61.1838 78.5166 61.3919 78.5267 61.6004 78.5385C61.7964 78.5504 61.9942 78.5622 62.1943 78.5758C62.35 78.5837 62.5057 78.5956 62.6632 78.6056C62.7966 78.6153 62.9299 78.6253 63.0633 78.6332C63.223 78.6451 63.3827 78.6569 63.5443 78.6687C63.7667 78.6867 63.9887 78.7043 64.2151 78.7222C64.4393 78.7419 64.6679 78.7617 64.8962 78.7814C65.1244 78.8011 65.3548 78.8226 65.5853 78.8445C65.6095 78.8463 65.6318 78.8485 65.6538 78.8503C65.8641 78.8721 66.0744 78.8919 66.2865 78.9138C67.4625 79.03 68.673 79.1663 69.9179 79.3224C70.6616 79.4153 71.4144 79.5146 72.1772 79.6205C73.3349 79.7805 74.5113 79.9541 75.6953 80.1399C76.8816 80.3275 78.0745 80.5255 79.2739 80.7343C79.5773 80.7874 79.8803 80.8409 80.1854 80.8961C80.5573 80.9632 80.9292 81.0317 81.301 81.1017C81.5355 81.1451 81.7699 81.1885 82.0041 81.2337C82.2832 81.2871 82.5638 81.3406 82.8426 81.3937C84.6796 81.7492 86.5066 82.1283 88.2889 82.5251C88.582 82.5904 88.8748 82.6575 89.166 82.7228C89.7478 82.8551 90.3244 82.9893 90.8956 83.1256C91.0531 83.1629 91.2088 83.2006 91.3645 83.2379C91.7543 83.333 92.1405 83.4277 92.5222 83.5224V83.5245C92.5446 83.5285 92.5669 83.5342 92.5893 83.5403C92.8681 83.6092 93.1447 83.6784 93.4198 83.7494C94.0683 83.9152 94.7061 84.0827 95.3333 84.2509C95.7495 84.3654 96.162 84.478 96.5679 84.5928C97.1765 84.7664 97.7725 84.9401 98.3525 85.1141C98.4957 85.1575 98.6393 85.2009 98.7807 85.2425C99.2054 85.3727 99.6215 85.5022 100.03 85.6313C100.353 85.7339 100.668 85.8387 100.979 85.9434C101.291 86.0478 101.596 86.1526 101.895 86.2573C102.089 86.3244 102.279 86.3936 102.467 86.4607C102.741 86.5594 103.008 86.658 103.271 86.7588C103.352 86.7886 103.431 86.8202 103.509 86.8496C103.657 86.9048 103.801 86.9622 103.942 87.0196C104.037 87.0551 104.13 87.0924 104.223 87.1319C104.314 87.1674 104.407 87.2051 104.496 87.2428C104.586 87.2783 104.675 87.3156 104.764 87.355C104.839 87.3848 104.912 87.4164 104.982 87.4479C105.126 87.5093 105.27 87.5703 105.409 87.6334C105.478 87.6653 105.546 87.6948 105.615 87.7263L105.773 87.7973C105.795 87.8092 105.817 87.8192 105.839 87.8289C106.011 87.9082 106.177 87.9871 106.339 88.066C106.49 88.141 106.638 88.216 106.779 88.2892C106.947 88.376 107.107 88.461 107.26 88.5478C107.29 88.5636 107.321 88.5815 107.351 88.5973C107.454 88.6544 107.553 88.7135 107.652 88.7709C107.846 88.8875 108.03 89.002 108.202 89.1164C108.372 89.2312 108.529 89.3435 108.676 89.4561C108.676 89.4583 108.676 89.4583 108.679 89.4583C108.749 89.5135 108.818 89.5688 108.883 89.6219C108.988 89.7108 109.085 89.7958 109.174 89.8826C109.204 89.9096 109.232 89.9379 109.259 89.9677C109.27 89.977 109.281 89.9878 109.291 89.9992C109.333 90.0444 109.376 90.09 109.416 90.1356C109.465 90.1908 109.509 90.246 109.552 90.3013C109.572 90.3289 109.594 90.3565 109.612 90.3842C109.636 90.4179 109.661 90.4534 109.681 90.4868C109.699 90.5147 109.715 90.5441 109.732 90.5718C109.774 90.6432 109.811 90.7178 109.841 90.7949C109.863 90.8476 109.881 90.9018 109.895 90.957C109.91 91.0094 109.922 91.0629 109.929 91.1167Z" fill="black"/>
</g>
</g>
<defs>
<clipPath id="clip0_38_124">
<rect width="159" height="113" fill="white"/>
</clipPath>
</defs>
</svg>
