<svg width="33" height="32" viewBox="0 0 33 32" fill="none" xmlns="http://www.w3.org/2000/svg">
<path d="M32.5 3.76471C31.3222 4.42353 30.0526 4.85647 28.7371 5.06353C30.0832 4.06588 31.1233 2.48471 31.6128 0.583529C30.3432 1.52471 28.9359 2.18353 27.4522 2.56C26.2438 0.941177 24.5459 0 22.6185 0C19.0239 0 16.087 3.61412 16.087 8.07529C16.087 8.71529 16.1482 9.33647 16.2553 9.92C10.8098 9.58118 5.9608 6.36235 2.73327 1.48706C2.1673 2.67294 1.84608 4.06588 1.84608 5.53412C1.84608 8.33882 2.99331 10.8235 4.76769 12.2353C3.68164 12.2353 2.67208 11.8588 1.7849 11.2941V11.3506C1.7849 15.2659 4.04876 18.5412 7.04685 19.2753C6.08429 19.5995 5.07376 19.6446 4.09465 19.4071C4.51011 21.0117 5.32377 22.4158 6.42125 23.422C7.51873 24.4281 8.84485 24.9858 10.2132 25.0165C7.8937 27.2761 5.01854 28.4975 2.06023 28.48C1.54015 28.48 1.02008 28.4424 0.5 28.3671C3.40631 30.6635 6.86329 32 10.565 32C22.6185 32 29.2419 19.6894 29.2419 9.01647C29.2419 8.65882 29.2419 8.32 29.2266 7.96235C30.5115 6.83294 31.6128 5.40235 32.5 3.76471Z" fill="url(#paint0_linear_144_11)"/>
<defs>
<linearGradient id="paint0_linear_144_11" x1="0.500001" y1="27.6491" x2="91.0263" y2="25.6842" gradientUnits="userSpaceOnUse">
<stop stop-color="#20EAF7"/>
<stop offset="0.380208" stop-color="#2879E0"/>
<stop offset="1" stop-color="#112F36"/>
</linearGradient>
</defs>
</svg>
