<svg width="64" height="64" viewBox="0 0 64 64" fill="none" xmlns="http://www.w3.org/2000/svg">
<path d="M45.952 38.4C46.208 36.288 46.4 34.176 46.4 32C46.4 29.824 46.208 27.712 45.952 25.6H56.768C57.28 27.648 57.6 29.792 57.6 32C57.6 34.208 57.28 36.352 56.768 38.4M40.288 56.192C42.208 52.64 43.68 48.8 44.704 44.8H54.144C51.0437 50.1385 46.1252 54.1824 40.288 56.192ZM39.488 38.4H24.512C24.192 36.288 24 34.176 24 32C24 29.824 24.192 27.68 24.512 25.6H39.488C39.776 27.68 40 29.824 40 32C40 34.176 39.776 36.288 39.488 38.4ZM32 57.472C29.344 53.632 27.2 49.376 25.888 44.8H38.112C36.8 49.376 34.656 53.632 32 57.472ZM19.2 19.2H9.856C12.9243 13.8471 17.8393 9.79676 23.68 7.808C21.76 11.36 20.32 15.2 19.2 19.2ZM9.856 44.8H19.2C20.32 48.8 21.76 52.64 23.68 56.192C17.8516 54.1813 12.9435 50.1367 9.856 44.8ZM7.232 38.4C6.72 36.352 6.4 34.208 6.4 32C6.4 29.792 6.72 27.648 7.232 25.6H18.048C17.792 27.712 17.6 29.824 17.6 32C17.6 34.176 17.792 36.288 18.048 38.4M32 6.496C34.656 10.336 36.8 14.624 38.112 19.2H25.888C27.2 14.624 29.344 10.336 32 6.496ZM54.144 19.2H44.704C43.7025 15.2367 42.2194 11.4109 40.288 7.808C46.176 9.824 51.072 13.888 54.144 19.2ZM32 0C14.304 0 0 14.4 0 32C0 40.4869 3.37142 48.6263 9.37258 54.6274C12.3441 57.5989 15.8717 59.956 19.7541 61.5642C23.6365 63.1723 27.7977 64 32 64C40.4869 64 48.6263 60.6286 54.6274 54.6274C60.6286 48.6263 64 40.4869 64 32C64 27.7977 63.1723 23.6365 61.5642 19.7541C59.956 15.8717 57.5989 12.3441 54.6274 9.37258C51.6559 6.40111 48.1283 4.04401 44.2459 2.43586C40.3635 0.827705 36.2023 0 32 0Z" fill="url(#paint0_linear_325_109)"/>
<defs>
<linearGradient id="paint0_linear_325_109" x1="1.21093e-06" y1="55.2982" x2="181.053" y2="51.3684" gradientUnits="userSpaceOnUse">
<stop stop-color="#20EAF7"/>
<stop offset="0.380208" stop-color="#2879E0"/>
<stop offset="1" stop-color="#112F36"/>
</linearGradient>
</defs>
</svg>
